<?xml version="1.0" encoding="UTF-8"?>
<svg width="53px" height="53px" viewBox="0 0 53 53" version="1.1" xmlns="http://www.w3.org/2000/svg" xmlns:xlink="http://www.w3.org/1999/xlink">
    <!-- Generator: Sketch 50.2 (55047) - http://www.bohemiancoding.com/sketch -->
    <title>cross</title>
    <desc>Created with Sketch.</desc>
    <defs></defs>
    <g id="Page-1" stroke="none" stroke-width="1" fill="none" fill-rule="evenodd">
        <g id="cross" fill="#535C65" fill-rule="nonzero">
            <path d="M26.425,16.975 L9.975,0.525 C9.275,0.175 8.225,0.175 7.525,0.525 L0.525,7.525 C0.175,8.225 0.175,9.275 0.525,9.975 L16.975,26.425 L0.525,42.875 C-0.175,43.575 -0.175,44.625 0.525,45.325 L7.525,52.325 C8.225,53.025 9.275,53.025 9.975,52.325 L26.425,35.875 L42.875,52.325 C43.575,53.025 44.625,53.025 45.325,52.325 L52.325,45.325 C53.025,44.625 53.025,43.575 52.325,42.875 L35.875,26.425 L52.325,9.975 C53.025,9.275 53.025,8.225 52.325,7.525 L45.325,0.525 C44.625,-0.175 43.575,-0.175 42.875,0.525 L26.425,16.975 Z" id="Imported-Layers"></path>
        </g>
    </g>
</svg>