<?xml version="1.0" encoding="UTF-8" standalone="no"?>
<svg width="16px" height="16px" viewBox="0 0 16 16" version="1.1" xmlns="http://www.w3.org/2000/svg" xmlns:xlink="http://www.w3.org/1999/xlink" xmlns:sketch="http://www.bohemiancoding.com/sketch/ns">
    <!-- Generator: Sketch 3.3.3 (12072) - http://www.bohemiancoding.com/sketch -->
    <title>Imported Layers</title>
    <desc>Created with Sketch.</desc>
    <defs></defs>
    <g id="Page-1" stroke="none" stroke-width="1" fill="none" fill-rule="evenodd" sketch:type="MSPage">
        <path d="M7.55,4.85 L2.85,0.15 C2.65,0.05 2.35,0.05 2.15,0.15 L0.15,2.15 C0.05,2.35 0.05,2.65 0.15,2.85 L4.85,7.55 L0.15,12.25 C-0.05,12.45 -0.05,12.75 0.15,12.95 L2.15,14.95 C2.35,15.15 2.65,15.15 2.85,14.95 L7.55,10.25 L12.25,14.95 C12.45,15.15 12.75,15.15 12.95,14.95 L14.95,12.95 C15.15,12.75 15.15,12.45 14.95,12.25 L10.25,7.55 L14.95,2.85 C15.15,2.65 15.15,2.35 14.95,2.15 L12.95,0.15 C12.75,-0.05 12.45,-0.05 12.25,0.15 L7.55,4.85 L7.55,4.85 Z" id="Imported-Layers" fill="#535C65" sketch:type="MSShapeGroup"></path>
    </g>
</svg>